<svg xmlns="http://www.w3.org/2000/svg" xmlns:xlink="http://www.w3.org/1999/xlink" contentStyleType="text/css" height="1836px" preserveAspectRatio="xMidYMid meet" style="width: 100%; height: 100%; background: rgb(255, 255, 255); max-width: 100%; position: absolute; top: 50%; left: 50%; transform: translate(-50%, -50%);" version="1.1" viewBox="0 0 1583 1836" width="1583px" zoomAndPan="magnify"><defs/><g><rect fill="#FFFFFF" height="206.7344" style="stroke:#000000;stroke-width:1.0;" width="1485.5039" x="15" y="313.3594"/><rect fill="#FFFFFF" height="43.9375" style="stroke:none;stroke-width:1.0;" width="1485.5039" x="15" y="476.1563"/><line style="stroke:#000000;stroke-width:1.0;" x1="57" x2="57" y1="36.2969" y2="1801.5391"/><line style="stroke:#000000;stroke-width:1.0;" x1="210.3057" x2="210.3057" y1="36.2969" y2="1801.5391"/><line style="stroke:#000000;stroke-width:1.0;" x1="392.2026" x2="392.2026" y1="36.2969" y2="1801.5391"/><line style="stroke:#000000;stroke-width:1.0;" x1="556.6089" x2="556.6089" y1="36.2969" y2="1801.5391"/><line style="stroke:#000000;stroke-width:1.0;" x1="723.6284" x2="723.6284" y1="36.2969" y2="1801.5391"/><line style="stroke:#000000;stroke-width:1.0;" x1="991.6045" x2="991.6045" y1="36.2969" y2="1801.5391"/><line style="stroke:#000000;stroke-width:1.0;" x1="1305.0859" x2="1305.0859" y1="36.2969" y2="1801.5391"/><line style="stroke:#000000;stroke-width:1.0;" x1="1427.8867" x2="1427.8867" y1="36.2969" y2="1801.5391"/><rect fill="#FFFFFF" height="30.2969" rx="2.5" ry="2.5" style="stroke:#000000;stroke-width:1.0;" width="45.9102" x="35" y="5"/><text fill="#000000" font-family="Verdana" font-size="14" lengthAdjust="spacing" textLength="31.9102" x="42" y="24.9951">User</text><rect fill="#FFFFFF" height="30.2969" rx="2.5" ry="2.5" style="stroke:#000000;stroke-width:1.0;" width="45.9102" x="35" y="1800.5391"/><text fill="#000000" font-family="Verdana" font-size="14" lengthAdjust="spacing" textLength="31.9102" x="42" y="1820.5342">User</text><rect fill="#FFFFFF" height="30.2969" rx="2.5" ry="2.5" style="stroke:#000000;stroke-width:1.0;" width="100.0234" x="160.3057" y="5"/><text fill="#000000" font-family="Verdana" font-size="14" lengthAdjust="spacing" textLength="86.0234" x="167.3057" y="24.9951">MainActivity</text><rect fill="#FFFFFF" height="30.2969" rx="2.5" ry="2.5" style="stroke:#000000;stroke-width:1.0;" width="100.0234" x="160.3057" y="1800.5391"/><text fill="#000000" font-family="Verdana" font-size="14" lengthAdjust="spacing" textLength="86.0234" x="167.3057" y="1820.5342">MainActivity</text><rect fill="#FFFFFF" height="30.2969" rx="2.5" ry="2.5" style="stroke:#000000;stroke-width:1.0;" width="142.4063" x="321.2026" y="5"/><text fill="#000000" font-family="Verdana" font-size="14" lengthAdjust="spacing" textLength="128.4063" x="328.2026" y="24.9951">AddProjectActivity</text><rect fill="#FFFFFF" height="30.2969" rx="2.5" ry="2.5" style="stroke:#000000;stroke-width:1.0;" width="142.4063" x="321.2026" y="1800.5391"/><text fill="#000000" font-family="Verdana" font-size="14" lengthAdjust="spacing" textLength="128.4063" x="328.2026" y="1820.5342">AddProjectActivity</text><rect fill="#FFFFFF" height="30.2969" rx="2.5" ry="2.5" style="stroke:#000000;stroke-width:1.0;" width="126.4854" x="493.6089" y="5"/><text fill="#000000" font-family="Verdana" font-size="14" lengthAdjust="spacing" textLength="112.4854" x="500.6089" y="24.9951">AddTaskActivity</text><rect fill="#FFFFFF" height="30.2969" rx="2.5" ry="2.5" style="stroke:#000000;stroke-width:1.0;" width="126.4854" x="493.6089" y="1800.5391"/><text fill="#000000" font-family="Verdana" font-size="14" lengthAdjust="spacing" textLength="112.4854" x="500.6089" y="1820.5342">AddTaskActivity</text><rect fill="#FFFFFF" height="30.2969" rx="2.5" ry="2.5" style="stroke:#000000;stroke-width:1.0;" width="115.0557" x="666.6284" y="5"/><text fill="#000000" font-family="Verdana" font-size="14" lengthAdjust="spacing" textLength="101.0557" x="673.6284" y="24.9951">ProjectActivity</text><rect fill="#FFFFFF" height="30.2969" rx="2.5" ry="2.5" style="stroke:#000000;stroke-width:1.0;" width="115.0557" x="666.6284" y="1800.5391"/><text fill="#000000" font-family="Verdana" font-size="14" lengthAdjust="spacing" textLength="101.0557" x="673.6284" y="1820.5342">ProjectActivity</text><rect fill="#FFFFFF" height="30.2969" rx="2.5" ry="2.5" style="stroke:#000000;stroke-width:1.0;" width="60.2861" x="961.6045" y="5"/><text fill="#000000" font-family="Verdana" font-size="14" lengthAdjust="spacing" textLength="46.2861" x="968.6045" y="24.9951">Helper</text><rect fill="#FFFFFF" height="30.2969" rx="2.5" ry="2.5" style="stroke:#000000;stroke-width:1.0;" width="60.2861" x="961.6045" y="1800.5391"/><text fill="#000000" font-family="Verdana" font-size="14" lengthAdjust="spacing" textLength="46.2861" x="968.6045" y="1820.5342">Helper</text><rect fill="#FFFFFF" height="30.2969" rx="2.5" ry="2.5" style="stroke:#000000;stroke-width:1.0;" width="80.8008" x="1265.0859" y="5"/><text fill="#000000" font-family="Verdana" font-size="14" lengthAdjust="spacing" textLength="66.8008" x="1272.0859" y="24.9951">Database</text><rect fill="#FFFFFF" height="30.2969" rx="2.5" ry="2.5" style="stroke:#000000;stroke-width:1.0;" width="80.8008" x="1265.0859" y="1800.5391"/><text fill="#000000" font-family="Verdana" font-size="14" lengthAdjust="spacing" textLength="66.8008" x="1272.0859" y="1820.5342">Database</text><rect fill="#FFFFFF" height="30.2969" rx="2.5" ry="2.5" style="stroke:#000000;stroke-width:1.0;" width="104.6172" x="1375.8867" y="5"/><text fill="#000000" font-family="Verdana" font-size="14" lengthAdjust="spacing" textLength="90.6172" x="1382.8867" y="24.9951">LoginActivity</text><rect fill="#FFFFFF" height="30.2969" rx="2.5" ry="2.5" style="stroke:#000000;stroke-width:1.0;" width="104.6172" x="1375.8867" y="1800.5391"/><text fill="#000000" font-family="Verdana" font-size="14" lengthAdjust="spacing" textLength="90.6172" x="1382.8867" y="1820.5342">LoginActivity</text><rect fill="#FFFFFF" height="3" style="stroke:#FFFFFF;stroke-width:1.0;" width="1571.7783" x="5" y="66.8633"/><line style="stroke:#000000;stroke-width:0.5;" x1="5" x2="1576.7783" y1="66.8633" y2="66.8633"/><line style="stroke:#000000;stroke-width:0.5;" x1="5" x2="1576.7783" y1="69.8633" y2="69.8633"/><rect fill="#FFFFFF" height="23.1328" style="stroke:#000000;stroke-width:1.0;" width="158.1997" x="711.7893" y="56.2969"/><text fill="#000000" font-family="Verdana" font-size="13" font-weight="bold" lengthAdjust="spacing" textLength="139.6738" x="717.7893" y="72.3638">User Login Process</text><polygon fill="#000000" points="1416.1953,106.5625,1426.1953,110.5625,1416.1953,114.5625,1420.1953,110.5625" style="stroke:#000000;stroke-width:1.0;"/><line style="stroke:#000000;stroke-width:1.0;" x1="57.9551" x2="1422.1953" y1="110.5625" y2="110.5625"/><text fill="#000000" font-family="Verdana" font-size="13" lengthAdjust="spacing" textLength="198.9165" x="64.9551" y="105.4966">Enter username and password</text><polygon fill="#000000" points="1416.1953,135.6953,1426.1953,139.6953,1416.1953,143.6953,1420.1953,139.6953" style="stroke:#000000;stroke-width:1.0;"/><line style="stroke:#000000;stroke-width:1.0;" x1="57.9551" x2="1422.1953" y1="139.6953" y2="139.6953"/><text fill="#000000" font-family="Verdana" font-size="13" lengthAdjust="spacing" textLength="120.561" x="64.9551" y="134.6294">Clicks login button</text><polygon fill="#000000" points="1002.7476,164.8281,992.7476,168.8281,1002.7476,172.8281,998.7476,168.8281" style="stroke:#000000;stroke-width:1.0;"/><line style="stroke:#000000;stroke-width:1.0;" x1="996.7476" x2="1427.1953" y1="168.8281" y2="168.8281"/><text fill="#000000" font-family="Verdana" font-size="13" lengthAdjust="spacing" textLength="185.5928" x="1008.7476" y="163.7622">isUser(username, password)</text><polygon fill="#000000" points="1293.4863,193.9609,1303.4863,197.9609,1293.4863,201.9609,1297.4863,197.9609" style="stroke:#000000;stroke-width:1.0;"/><line style="stroke:#000000;stroke-width:1.0;" x1="991.7476" x2="1299.4863" y1="197.9609" y2="197.9609"/><text fill="#000000" font-family="Verdana" font-size="13" lengthAdjust="spacing" textLength="289.7388" x="998.7476" y="192.895">Query for user with username and password</text><polygon fill="#000000" points="1002.7476,223.0938,992.7476,227.0938,1002.7476,231.0938,998.7476,227.0938" style="stroke:#000000;stroke-width:1.0;"/><line style="stroke:#000000;stroke-width:1.0;" x1="996.7476" x2="1304.4863" y1="227.0938" y2="227.0938"/><text fill="#000000" font-family="Verdana" font-size="13" lengthAdjust="spacing" textLength="244.3975" x="1008.7476" y="222.0278">Return user data (or null if not found)</text><polygon fill="#000000" points="1416.1953,252.2266,1426.1953,256.2266,1416.1953,260.2266,1420.1953,256.2266" style="stroke:#000000;stroke-width:1.0;"/><line style="stroke:#000000;stroke-width:1.0;" x1="991.7476" x2="1422.1953" y1="256.2266" y2="256.2266"/><text fill="#000000" font-family="Verdana" font-size="13" lengthAdjust="spacing" textLength="161.4082" x="998.7476" y="251.1606">Return result (true/false)</text><line style="stroke:#000000;stroke-width:1.0;" x1="1428.1953" x2="1470.1953" y1="285.3594" y2="285.3594"/><line style="stroke:#000000;stroke-width:1.0;" x1="1470.1953" x2="1470.1953" y1="285.3594" y2="298.3594"/><line style="stroke:#000000;stroke-width:1.0;" x1="1429.1953" x2="1470.1953" y1="298.3594" y2="298.3594"/><polygon fill="#000000" points="1439.1953,294.3594,1429.1953,298.3594,1439.1953,302.3594,1435.1953,298.3594" style="stroke:#000000;stroke-width:1.0;"/><text fill="#000000" font-family="Verdana" font-size="13" lengthAdjust="spacing" textLength="134.583" x="1435.1953" y="280.2935">Check if user is valid</text><path d="M15,313.3594 L79.4429,313.3594 L79.4429,320.4922 L69.4429,330.4922 L15,330.4922 L15,313.3594 " fill="#FFFFFF" style="stroke:#000000;stroke-width:1.0;"/><rect fill="none" height="206.7344" style="stroke:#000000;stroke-width:1.0;" width="1485.5039" x="15" y="313.3594"/><text fill="#000000" font-family="Verdana" font-size="13" font-weight="bold" lengthAdjust="spacing" textLength="19.4429" x="30" y="326.4263">alt</text><text fill="#000000" font-family="Verdana" font-size="11" font-weight="bold" lengthAdjust="spacing" textLength="73.6001" x="94.4429" y="325.5698">[User Valid]</text><polygon fill="#000000" points="1002.7476,347.625,992.7476,351.625,1002.7476,355.625,998.7476,351.625" style="stroke:#000000;stroke-width:1.0;"/><line style="stroke:#000000;stroke-width:1.0;" x1="996.7476" x2="1427.1953" y1="351.625" y2="351.625"/><text fill="#000000" font-family="Verdana" font-size="13" lengthAdjust="spacing" textLength="140.188" x="1008.7476" y="346.5591">getUserID(username)</text><polygon fill="#000000" points="1293.4863,376.7578,1303.4863,380.7578,1293.4863,384.7578,1297.4863,380.7578" style="stroke:#000000;stroke-width:1.0;"/><line style="stroke:#000000;stroke-width:1.0;" x1="991.7476" x2="1299.4863" y1="380.7578" y2="380.7578"/><text fill="#000000" font-family="Verdana" font-size="13" lengthAdjust="spacing" textLength="111.979" x="998.7476" y="375.6919">Query for user ID</text><polygon fill="#000000" points="1002.7476,405.8906,992.7476,409.8906,1002.7476,413.8906,998.7476,409.8906" style="stroke:#000000;stroke-width:1.0;"/><line style="stroke:#000000;stroke-width:1.0;" x1="996.7476" x2="1304.4863" y1="409.8906" y2="409.8906"/><text fill="#000000" font-family="Verdana" font-size="13" lengthAdjust="spacing" textLength="94.415" x="1008.7476" y="404.8247">Return user ID</text><polygon fill="#000000" points="1416.1953,435.0234,1426.1953,439.0234,1416.1953,443.0234,1420.1953,439.0234" style="stroke:#000000;stroke-width:1.0;"/><line style="stroke:#000000;stroke-width:1.0;" x1="991.7476" x2="1422.1953" y1="439.0234" y2="439.0234"/><text fill="#000000" font-family="Verdana" font-size="13" lengthAdjust="spacing" textLength="94.415" x="998.7476" y="433.9575">Return user ID</text><polygon fill="#000000" points="221.3174,464.1563,211.3174,468.1563,221.3174,472.1563,217.3174,468.1563" style="stroke:#000000;stroke-width:1.0;"/><line style="stroke:#000000;stroke-width:1.0;" x1="215.3174" x2="1427.1953" y1="468.1563" y2="468.1563"/><text fill="#000000" font-family="Verdana" font-size="13" lengthAdjust="spacing" textLength="291.7573" x="227.3174" y="463.0903">Start MainActivity with userID and username</text><line style="stroke:#000000;stroke-width:1.0;stroke-dasharray:2.0,2.0;" x1="15" x2="1500.5039" y1="477.1563" y2="477.1563"/><text fill="#000000" font-family="Verdana" font-size="11" font-weight="bold" lengthAdjust="spacing" textLength="84.1812" x="20" y="487.3667">[User Invalid]</text><polygon fill="#000000" points="68.9551,508.0938,58.9551,512.0938,68.9551,516.0938,64.9551,512.0938" style="stroke:#000000;stroke-width:1.0;"/><line style="stroke:#000000;stroke-width:1.0;" x1="62.9551" x2="1427.1953" y1="512.0938" y2="512.0938"/><text fill="#000000" font-family="Verdana" font-size="13" lengthAdjust="spacing" textLength="309.7974" x="74.9551" y="507.0278">Show "Invalid username or password" message</text><rect fill="#FFFFFF" height="3" style="stroke:#FFFFFF;stroke-width:1.0;" width="1571.7783" x="5" y="547.6602"/><line style="stroke:#000000;stroke-width:0.5;" x1="5" x2="1576.7783" y1="547.6602" y2="547.6602"/><line style="stroke:#000000;stroke-width:0.5;" x1="5" x2="1576.7783" y1="550.6602" y2="550.6602"/><rect fill="#FFFFFF" height="23.1328" style="stroke:#000000;stroke-width:1.0;" width="182.7715" x="699.5034" y="537.0938"/><text fill="#000000" font-family="Verdana" font-size="13" font-weight="bold" lengthAdjust="spacing" textLength="164.2456" x="705.5034" y="553.1606">User Creates a Project</text><polygon fill="#000000" points="198.3174,587.3594,208.3174,591.3594,198.3174,595.3594,202.3174,591.3594" style="stroke:#000000;stroke-width:1.0;"/><line style="stroke:#000000;stroke-width:1.0;" x1="57.9551" x2="204.3174" y1="591.3594" y2="591.3594"/><text fill="#000000" font-family="Verdana" font-size="13" lengthAdjust="spacing" textLength="128.3623" x="64.9551" y="586.2935">Clicks "Add Project"</text><polygon fill="#000000" points="380.4058,616.4922,390.4058,620.4922,380.4058,624.4922,384.4058,620.4922" style="stroke:#000000;stroke-width:1.0;"/><line style="stroke:#000000;stroke-width:1.0;" x1="210.3174" x2="386.4058" y1="620.4922" y2="620.4922"/><text fill="#000000" font-family="Verdana" font-size="13" lengthAdjust="spacing" textLength="158.0884" x="217.3174" y="615.4263">Open AddProjectActivity</text><polygon fill="#000000" points="380.4058,645.625,390.4058,649.625,380.4058,653.625,384.4058,649.625" style="stroke:#000000;stroke-width:1.0;"/><line style="stroke:#000000;stroke-width:1.0;" x1="57.9551" x2="386.4058" y1="649.625" y2="649.625"/><text fill="#000000" font-family="Verdana" font-size="13" lengthAdjust="spacing" textLength="131.8726" x="64.9551" y="644.5591">Enter project details</text><polygon fill="#000000" points="380.4058,674.7578,390.4058,678.7578,380.4058,682.7578,384.4058,678.7578" style="stroke:#000000;stroke-width:1.0;"/><line style="stroke:#000000;stroke-width:1.0;" x1="57.9551" x2="386.4058" y1="678.7578" y2="678.7578"/><text fill="#000000" font-family="Verdana" font-size="13" lengthAdjust="spacing" textLength="168.6001" x="64.9551" y="673.6919">Click "Add Project" button</text><polygon fill="#000000" points="979.7476,703.8906,989.7476,707.8906,979.7476,711.8906,983.7476,707.8906" style="stroke:#000000;stroke-width:1.0;"/><line style="stroke:#000000;stroke-width:1.0;" x1="392.4058" x2="985.7476" y1="707.8906" y2="707.8906"/><text fill="#000000" font-family="Verdana" font-size="13" lengthAdjust="spacing" textLength="125.0107" x="399.4058" y="702.8247">addProject(project)</text><polygon fill="#000000" points="1293.4863,733.0234,1303.4863,737.0234,1293.4863,741.0234,1297.4863,737.0234" style="stroke:#000000;stroke-width:1.0;"/><line style="stroke:#000000;stroke-width:1.0;" x1="991.7476" x2="1299.4863" y1="737.0234" y2="737.0234"/><text fill="#000000" font-family="Verdana" font-size="13" lengthAdjust="spacing" textLength="180.2607" x="998.7476" y="731.9575">Insert project into database</text><polygon fill="#000000" points="1002.7476,762.1563,992.7476,766.1563,1002.7476,770.1563,998.7476,766.1563" style="stroke:#000000;stroke-width:1.0;"/><line style="stroke:#000000;stroke-width:1.0;" x1="996.7476" x2="1304.4863" y1="766.1563" y2="766.1563"/><text fill="#000000" font-family="Verdana" font-size="13" lengthAdjust="spacing" textLength="208.0254" x="1008.7476" y="761.0903">Confirmation of project creation</text><polygon fill="#000000" points="403.4058,791.2891,393.4058,795.2891,403.4058,799.2891,399.4058,795.2891" style="stroke:#000000;stroke-width:1.0;"/><line style="stroke:#000000;stroke-width:1.0;" x1="397.4058" x2="990.7476" y1="795.2891" y2="795.2891"/><text fill="#000000" font-family="Verdana" font-size="13" lengthAdjust="spacing" textLength="161.4907" x="409.4058" y="790.2231">Return success message</text><polygon fill="#000000" points="68.9551,820.4219,58.9551,824.4219,68.9551,828.4219,64.9551,824.4219" style="stroke:#000000;stroke-width:1.0;"/><line style="stroke:#000000;stroke-width:1.0;" x1="62.9551" x2="391.4058" y1="824.4219" y2="824.4219"/><text fill="#000000" font-family="Verdana" font-size="13" lengthAdjust="spacing" textLength="223.7295" x="74.9551" y="819.356">Show "Project added successfully"</text><rect fill="#FFFFFF" height="3" style="stroke:#FFFFFF;stroke-width:1.0;" width="1571.7783" x="5" y="852.9883"/><line style="stroke:#000000;stroke-width:0.5;" x1="5" x2="1576.7783" y1="852.9883" y2="852.9883"/><line style="stroke:#000000;stroke-width:0.5;" x1="5" x2="1576.7783" y1="855.9883" y2="855.9883"/><rect fill="#FFFFFF" height="23.1328" style="stroke:#000000;stroke-width:1.0;" width="182.1113" x="699.8335" y="842.4219"/><text fill="#000000" font-family="Verdana" font-size="13" font-weight="bold" lengthAdjust="spacing" textLength="163.5854" x="705.8335" y="858.4888">User Deletes a Project</text><polygon fill="#000000" points="712.1563,892.6875,722.1563,896.6875,712.1563,900.6875,716.1563,896.6875" style="stroke:#000000;stroke-width:1.0;"/><line style="stroke:#000000;stroke-width:1.0;" x1="57.9551" x2="718.1563" y1="896.6875" y2="896.6875"/><text fill="#000000" font-family="Verdana" font-size="13" lengthAdjust="spacing" textLength="145.6787" x="64.9551" y="891.6216">Clicks "Delete Project"</text><polygon fill="#000000" points="979.7476,921.8203,989.7476,925.8203,979.7476,929.8203,983.7476,925.8203" style="stroke:#000000;stroke-width:1.0;"/><line style="stroke:#000000;stroke-width:1.0;" x1="724.1563" x2="985.7476" y1="925.8203" y2="925.8203"/><text fill="#000000" font-family="Verdana" font-size="13" lengthAdjust="spacing" textLength="153.5815" x="731.1563" y="920.7544">deleteProject(projectId)</text><polygon fill="#000000" points="1293.4863,950.9531,1303.4863,954.9531,1293.4863,958.9531,1297.4863,954.9531" style="stroke:#000000;stroke-width:1.0;"/><line style="stroke:#000000;stroke-width:1.0;" x1="991.7476" x2="1299.4863" y1="954.9531" y2="954.9531"/><text fill="#000000" font-family="Verdana" font-size="13" lengthAdjust="spacing" textLength="201.9507" x="998.7476" y="949.8872">Remove project from database</text><polygon fill="#000000" points="1002.7476,980.0859,992.7476,984.0859,1002.7476,988.0859,998.7476,984.0859" style="stroke:#000000;stroke-width:1.0;"/><line style="stroke:#000000;stroke-width:1.0;" x1="996.7476" x2="1304.4863" y1="984.0859" y2="984.0859"/><text fill="#000000" font-family="Verdana" font-size="13" lengthAdjust="spacing" textLength="207.4287" x="1008.7476" y="979.02">Confirmation of project deletion</text><polygon fill="#000000" points="735.1563,1009.2188,725.1563,1013.2188,735.1563,1017.2188,731.1563,1013.2188" style="stroke:#000000;stroke-width:1.0;"/><line style="stroke:#000000;stroke-width:1.0;" x1="729.1563" x2="990.7476" y1="1013.2188" y2="1013.2188"/><text fill="#000000" font-family="Verdana" font-size="13" lengthAdjust="spacing" textLength="161.4907" x="741.1563" y="1008.1528">Return success message</text><polygon fill="#000000" points="68.9551,1038.3516,58.9551,1042.3516,68.9551,1046.3516,64.9551,1042.3516" style="stroke:#000000;stroke-width:1.0;"/><line style="stroke:#000000;stroke-width:1.0;" x1="62.9551" x2="723.1563" y1="1042.3516" y2="1042.3516"/><text fill="#000000" font-family="Verdana" font-size="13" lengthAdjust="spacing" textLength="232.2163" x="74.9551" y="1037.2856">Show "Project deleted successfully"</text><rect fill="#FFFFFF" height="3" style="stroke:#FFFFFF;stroke-width:1.0;" width="1571.7783" x="5" y="1070.918"/><line style="stroke:#000000;stroke-width:0.5;" x1="5" x2="1576.7783" y1="1070.918" y2="1070.918"/><line style="stroke:#000000;stroke-width:0.5;" x1="5" x2="1576.7783" y1="1073.918" y2="1073.918"/><rect fill="#FFFFFF" height="23.1328" style="stroke:#000000;stroke-width:1.0;" width="164.7314" x="708.5234" y="1060.3516"/><text fill="#000000" font-family="Verdana" font-size="13" font-weight="bold" lengthAdjust="spacing" textLength="146.2056" x="714.5234" y="1076.4185">User Creates a Task</text><polygon fill="#000000" points="712.1563,1110.6172,722.1563,1114.6172,712.1563,1118.6172,716.1563,1114.6172" style="stroke:#000000;stroke-width:1.0;"/><line style="stroke:#000000;stroke-width:1.0;" x1="57.9551" x2="718.1563" y1="1114.6172" y2="1114.6172"/><text fill="#000000" font-family="Verdana" font-size="13" lengthAdjust="spacing" textLength="113.5786" x="64.9551" y="1109.5513">Clicks "Add Task"</text><polygon fill="#000000" points="567.8516,1139.75,557.8516,1143.75,567.8516,1147.75,563.8516,1143.75" style="stroke:#000000;stroke-width:1.0;"/><line style="stroke:#000000;stroke-width:1.0;" x1="561.8516" x2="723.1563" y1="1143.75" y2="1143.75"/><text fill="#000000" font-family="Verdana" font-size="13" lengthAdjust="spacing" textLength="143.3047" x="573.8516" y="1138.6841">Open AddTaskActivity</text><polygon fill="#000000" points="544.8516,1168.8828,554.8516,1172.8828,544.8516,1176.8828,548.8516,1172.8828" style="stroke:#000000;stroke-width:1.0;"/><line style="stroke:#000000;stroke-width:1.0;" x1="57.9551" x2="550.8516" y1="1172.8828" y2="1172.8828"/><text fill="#000000" font-family="Verdana" font-size="13" lengthAdjust="spacing" textLength="113.8325" x="64.9551" y="1167.8169">Enter task details</text><polygon fill="#000000" points="544.8516,1198.0156,554.8516,1202.0156,544.8516,1206.0156,548.8516,1202.0156" style="stroke:#000000;stroke-width:1.0;"/><line style="stroke:#000000;stroke-width:1.0;" x1="57.9551" x2="550.8516" y1="1202.0156" y2="1202.0156"/><text fill="#000000" font-family="Verdana" font-size="13" lengthAdjust="spacing" textLength="153.8164" x="64.9551" y="1196.9497">Click "Add Task" button</text><polygon fill="#000000" points="979.7476,1227.1484,989.7476,1231.1484,979.7476,1235.1484,983.7476,1231.1484" style="stroke:#000000;stroke-width:1.0;"/><line style="stroke:#000000;stroke-width:1.0;" x1="556.8516" x2="985.7476" y1="1231.1484" y2="1231.1484"/><text fill="#000000" font-family="Verdana" font-size="13" lengthAdjust="spacing" textLength="92.187" x="563.8516" y="1226.0825">addTask(task)</text><polygon fill="#000000" points="1293.4863,1256.2813,1303.4863,1260.2813,1293.4863,1264.2813,1297.4863,1260.2813" style="stroke:#000000;stroke-width:1.0;"/><line style="stroke:#000000;stroke-width:1.0;" x1="991.7476" x2="1299.4863" y1="1260.2813" y2="1260.2813"/><text fill="#000000" font-family="Verdana" font-size="13" lengthAdjust="spacing" textLength="162.2207" x="998.7476" y="1255.2153">Insert task into database</text><polygon fill="#000000" points="1002.7476,1285.4141,992.7476,1289.4141,1002.7476,1293.4141,998.7476,1289.4141" style="stroke:#000000;stroke-width:1.0;"/><line style="stroke:#000000;stroke-width:1.0;" x1="996.7476" x2="1304.4863" y1="1289.4141" y2="1289.4141"/><text fill="#000000" font-family="Verdana" font-size="13" lengthAdjust="spacing" textLength="189.9854" x="1008.7476" y="1284.3481">Confirmation of task creation</text><polygon fill="#000000" points="567.8516,1314.5469,557.8516,1318.5469,567.8516,1322.5469,563.8516,1318.5469" style="stroke:#000000;stroke-width:1.0;"/><line style="stroke:#000000;stroke-width:1.0;" x1="561.8516" x2="990.7476" y1="1318.5469" y2="1318.5469"/><text fill="#000000" font-family="Verdana" font-size="13" lengthAdjust="spacing" textLength="161.4907" x="573.8516" y="1313.481">Return success message</text><polygon fill="#000000" points="68.9551,1343.6797,58.9551,1347.6797,68.9551,1351.6797,64.9551,1347.6797" style="stroke:#000000;stroke-width:1.0;"/><line style="stroke:#000000;stroke-width:1.0;" x1="62.9551" x2="555.8516" y1="1347.6797" y2="1347.6797"/><text fill="#000000" font-family="Verdana" font-size="13" lengthAdjust="spacing" textLength="208.9458" x="74.9551" y="1342.6138">Show "Task added successfully"</text><rect fill="#FFFFFF" height="3" style="stroke:#FFFFFF;stroke-width:1.0;" width="1571.7783" x="5" y="1376.2461"/><line style="stroke:#000000;stroke-width:0.5;" x1="5" x2="1576.7783" y1="1376.2461" y2="1376.2461"/><line style="stroke:#000000;stroke-width:0.5;" x1="5" x2="1576.7783" y1="1379.2461" y2="1379.2461"/><rect fill="#FFFFFF" height="23.1328" style="stroke:#000000;stroke-width:1.0;" width="169.1304" x="706.324" y="1365.6797"/><text fill="#000000" font-family="Verdana" font-size="13" font-weight="bold" lengthAdjust="spacing" textLength="150.6045" x="712.324" y="1381.7466">User Updates a Task</text><polygon fill="#000000" points="712.1563,1415.9453,722.1563,1419.9453,712.1563,1423.9453,716.1563,1419.9453" style="stroke:#000000;stroke-width:1.0;"/><line style="stroke:#000000;stroke-width:1.0;" x1="57.9551" x2="718.1563" y1="1419.9453" y2="1419.9453"/><text fill="#000000" font-family="Verdana" font-size="13" lengthAdjust="spacing" textLength="255.6455" x="64.9551" y="1414.8794">Selects task and clicks "Update Status"</text><polygon fill="#000000" points="979.7476,1445.0781,989.7476,1449.0781,979.7476,1453.0781,983.7476,1449.0781" style="stroke:#000000;stroke-width:1.0;"/><line style="stroke:#000000;stroke-width:1.0;" x1="724.1563" x2="985.7476" y1="1449.0781" y2="1449.0781"/><text fill="#000000" font-family="Verdana" font-size="13" lengthAdjust="spacing" textLength="243.5913" x="731.1563" y="1444.0122">updateTaskStatus(taskId, newStatus)</text><polygon fill="#000000" points="1293.4863,1474.2109,1303.4863,1478.2109,1293.4863,1482.2109,1297.4863,1478.2109" style="stroke:#000000;stroke-width:1.0;"/><line style="stroke:#000000;stroke-width:1.0;" x1="991.7476" x2="1299.4863" y1="1478.2109" y2="1478.2109"/><text fill="#000000" font-family="Verdana" font-size="13" lengthAdjust="spacing" textLength="203.0425" x="998.7476" y="1473.145">Update task status in database</text><polygon fill="#000000" points="1002.7476,1503.3438,992.7476,1507.3438,1002.7476,1511.3438,998.7476,1507.3438" style="stroke:#000000;stroke-width:1.0;"/><line style="stroke:#000000;stroke-width:1.0;" x1="996.7476" x2="1304.4863" y1="1507.3438" y2="1507.3438"/><text fill="#000000" font-family="Verdana" font-size="13" lengthAdjust="spacing" textLength="226.5098" x="1008.7476" y="1502.2778">Confirmation of task status update</text><polygon fill="#000000" points="735.1563,1532.4766,725.1563,1536.4766,735.1563,1540.4766,731.1563,1536.4766" style="stroke:#000000;stroke-width:1.0;"/><line style="stroke:#000000;stroke-width:1.0;" x1="729.1563" x2="990.7476" y1="1536.4766" y2="1536.4766"/><text fill="#000000" font-family="Verdana" font-size="13" lengthAdjust="spacing" textLength="161.4907" x="741.1563" y="1531.4106">Return success message</text><polygon fill="#000000" points="68.9551,1561.6094,58.9551,1565.6094,68.9551,1569.6094,64.9551,1565.6094" style="stroke:#000000;stroke-width:1.0;"/><line style="stroke:#000000;stroke-width:1.0;" x1="62.9551" x2="723.1563" y1="1565.6094" y2="1565.6094"/><text fill="#000000" font-family="Verdana" font-size="13" lengthAdjust="spacing" textLength="266.3604" x="74.9551" y="1560.5435">Show "Task status updated successfully"</text><rect fill="#FFFFFF" height="3" style="stroke:#FFFFFF;stroke-width:1.0;" width="1571.7783" x="5" y="1594.1758"/><line style="stroke:#000000;stroke-width:0.5;" x1="5" x2="1576.7783" y1="1594.1758" y2="1594.1758"/><line style="stroke:#000000;stroke-width:0.5;" x1="5" x2="1576.7783" y1="1597.1758" y2="1597.1758"/><rect fill="#FFFFFF" height="23.1328" style="stroke:#000000;stroke-width:1.0;" width="164.0713" x="708.8535" y="1583.6094"/><text fill="#000000" font-family="Verdana" font-size="13" font-weight="bold" lengthAdjust="spacing" textLength="145.5454" x="714.8535" y="1599.6763">User Deletes a Task</text><polygon fill="#000000" points="712.1563,1633.875,722.1563,1637.875,712.1563,1641.875,716.1563,1637.875" style="stroke:#000000;stroke-width:1.0;"/><line style="stroke:#000000;stroke-width:1.0;" x1="57.9551" x2="718.1563" y1="1637.875" y2="1637.875"/><text fill="#000000" font-family="Verdana" font-size="13" lengthAdjust="spacing" textLength="130.895" x="64.9551" y="1632.8091">Clicks "Delete Task"</text><polygon fill="#000000" points="979.7476,1663.0078,989.7476,1667.0078,979.7476,1671.0078,983.7476,1667.0078" style="stroke:#000000;stroke-width:1.0;"/><line style="stroke:#000000;stroke-width:1.0;" x1="724.1563" x2="985.7476" y1="1667.0078" y2="1667.0078"/><text fill="#000000" font-family="Verdana" font-size="13" lengthAdjust="spacing" textLength="120.7578" x="731.1563" y="1661.9419">deleteTask(taskId)</text><polygon fill="#000000" points="1293.4863,1692.1406,1303.4863,1696.1406,1293.4863,1700.1406,1297.4863,1696.1406" style="stroke:#000000;stroke-width:1.0;"/><line style="stroke:#000000;stroke-width:1.0;" x1="991.7476" x2="1299.4863" y1="1696.1406" y2="1696.1406"/><text fill="#000000" font-family="Verdana" font-size="13" lengthAdjust="spacing" textLength="183.9106" x="998.7476" y="1691.0747">Remove task from database</text><polygon fill="#000000" points="1002.7476,1721.2734,992.7476,1725.2734,1002.7476,1729.2734,998.7476,1725.2734" style="stroke:#000000;stroke-width:1.0;"/><line style="stroke:#000000;stroke-width:1.0;" x1="996.7476" x2="1304.4863" y1="1725.2734" y2="1725.2734"/><text fill="#000000" font-family="Verdana" font-size="13" lengthAdjust="spacing" textLength="189.3887" x="1008.7476" y="1720.2075">Confirmation of task deletion</text><polygon fill="#000000" points="735.1563,1750.4063,725.1563,1754.4063,735.1563,1758.4063,731.1563,1754.4063" style="stroke:#000000;stroke-width:1.0;"/><line style="stroke:#000000;stroke-width:1.0;" x1="729.1563" x2="990.7476" y1="1754.4063" y2="1754.4063"/><text fill="#000000" font-family="Verdana" font-size="13" lengthAdjust="spacing" textLength="161.4907" x="741.1563" y="1749.3403">Return success message</text><polygon fill="#000000" points="68.9551,1779.5391,58.9551,1783.5391,68.9551,1787.5391,64.9551,1783.5391" style="stroke:#000000;stroke-width:1.0;"/><line style="stroke:#000000;stroke-width:1.0;" x1="62.9551" x2="723.1563" y1="1783.5391" y2="1783.5391"/><text fill="#000000" font-family="Verdana" font-size="13" lengthAdjust="spacing" textLength="217.4326" x="74.9551" y="1778.4731">Show "Task deleted successfully"</text><!--SRC=[jLLDZzem4BtdLqmvWRHLxqXKMa6bHchLTfVjtPjCm2NOKJm1yU_hZpY9GmBPLSiDpvklD_Cc7sYFHuGYPrn41Ik99xnWWk15OHayVDU8nuJuYTCbC3ocwSzI_i64ninRfWw3jbj-Np4lUYLi6B5NfZ2ALYjR87oJEovCc0ILWjKgigyVFpk3Zxk4BuBqUwMDWkbscKYXO4gTPPcEkQnpdXmKv3R3QqKaHHH0Z8yhSWbScIXpd-2XYRw87CI0VVbB-5LXUO5CkfBWp6a_KfptwIPxGgfAuLnJROUv3YIgF0UUWP2a0rSYoDnhhGvGegfoWZcL5NxAMAvmSTrXdvKz9WUJnsRd2auivsd4ShSnyDl-1VqRvMg7PA3nfg5hOHqc41LlBF8UAJNiNlzTx5MrtNLVmZFfDGpUsg756piotqo4caX7HYnEutGOX0wybsUOrS1s1tJ3VWLcSDIxpNOwi4ZRpL-No0WLC2-YxlQ7nTURFDDAzE1P5FIYNQvLl8GV1OeXUViqGpvEQKLTKuh4UAvkUjZomkgytgxXtP6pnZglymshBHOwEpKrSK7IwiQUag5TMakHyVB8Y4i1Cciy4yEvVkja6MgeNYzL9VOg-V4DDzDT0pz9tHYctZ_JmhxCsi5lCCVHmG-JgsVllDhntw0rjT0Ui_789Nl2epnXmr1MokFxkBLPGswd4ZkHLTVNAA-jeCpdQXAfPcKDU93EtdUlLLFmDUm88qGx7P4fPK148RQZ85jEHpvTO4yxnZGt2MwgnbRmTibOjs6zXBMFYwLVUdUcTaGtPV9If5F7-QmN8o7bQZQdFAddwsAOuq-LkgcPoY9D9WUslCRf0mWykvTXakiCDhEoECtrEvYkVLqP_rv2swiS4yxJP1dLjsbKIU5XQjRspacolBpz7jMA-r_7QDk4xrFu5m00]--></g></svg>